<?xml version="1.0" encoding="UTF-8" standalone="no"?>
<!-- Created with Inkscape (http://www.inkscape.org/) -->

<svg
   width="170mm"
   height="70mm"
   viewBox="0 0 170 70"
   version="1.1"
   id="svg5"
   inkscape:version="1.1.1 (3bf5ae0d25, 2021-09-20)"
   sodipodi:docname="logonn.svg"
   inkscape:export-filename="H:\1\media\landing page\logonn.png"
   inkscape:export-xdpi="96"
   inkscape:export-ydpi="96"
   xmlns:inkscape="http://www.inkscape.org/namespaces/inkscape"
   xmlns:sodipodi="http://sodipodi.sourceforge.net/DTD/sodipodi-0.dtd"
   xmlns="http://www.w3.org/2000/svg"
   xmlns:svg="http://www.w3.org/2000/svg">
  <sodipodi:namedview
     id="namedview7"
     pagecolor="#ffffff"
     bordercolor="#666666"
     borderopacity="1.0"
     inkscape:pageshadow="2"
     inkscape:pageopacity="0.0"
     inkscape:pagecheckerboard="0"
     inkscape:document-units="mm"
     showgrid="false"
     inkscape:snap-global="true"
     width="170mm"
     inkscape:zoom="1.0482005"
     inkscape:cx="53.424894"
     inkscape:cy="233.2569"
     inkscape:window-width="1920"
     inkscape:window-height="1017"
     inkscape:window-x="-8"
     inkscape:window-y="-8"
     inkscape:window-maximized="1"
     inkscape:current-layer="g3138">
    <inkscape:grid
       type="xygrid"
       id="grid1193" />
  </sodipodi:namedview>
  <defs
     id="defs2" />
  <g
     inkscape:label="Слой 1"
     inkscape:groupmode="layer"
     id="layer1">
    <g
       id="g3049"
       transform="matrix(0.93847577,0,0,0.93847577,-22.165241,-33.134878)">
      <g
         id="g3138"
         transform="matrix(1.1457199,0,0,1.1457199,-26.66414,-15.348444)">
        <path
           style="fill:#000000;stroke-width:0.264583"
           d="m 115.05774,65.497666 c -0.25662,-0.167762 -0.31983,-1.322099 -0.26459,-4.83104 l 0.0726,-4.610608 h 2.08824 c 1.95787,0 2.12135,0.04436 2.6186,0.710525 0.41471,0.555596 0.53035,1.12182 0.53035,2.596767 0,2.470139 -0.55519,3.317867 -2.15161,3.285333 l -1.07744,-0.02196 -0.078,1.477166 c -0.0717,1.356815 -0.13192,1.482751 -0.73949,1.545706 -0.3638,0.0377 -0.81319,-0.03065 -0.99863,-0.151892 z m 2.98301,-6.137981 c 0,-1.275194 -0.0643,-1.451584 -0.52917,-1.451584 -0.43568,0 -0.5438,0.204002 -0.61201,1.154748 -0.10361,1.444368 0.0835,1.952106 0.67736,1.837745 0.37482,-0.07218 0.46382,-0.36785 0.46382,-1.540909 z m 28.61909,6.177235 c -0.097,-0.09701 -0.17638,-2.299669 -0.17638,-4.894792 v -4.718402 h 0.92604 c 0.50932,0 0.92604,0.11651 0.92604,0.258911 0,0.159599 0.24623,0.146719 0.64195,-0.03358 1.8091,-0.824286 2.94908,0.7684 2.73105,3.815622 -0.16724,2.337453 -0.66056,2.944363 -2.24785,2.765451 l -1.12515,-0.126822 v 1.555001 c 0,1.531062 -0.0115,1.554998 -0.74965,1.554998 -0.41231,0 -0.82903,-0.07938 -0.92605,-0.176389 z m 3.1026,-5.004626 c 0.0883,-0.230182 0.1606,-0.756226 0.1606,-1.168984 0,-1.089049 -0.25435,-1.5875 -0.81007,-1.5875 -0.5642,0 -0.9429,1.421378 -0.66922,2.511803 0.18859,0.751411 1.06205,0.913479 1.31869,0.244681 z m -9.3644,4.246671 c 0,-0.396401 0.18898,-0.739489 0.46302,-0.840597 1.13364,-0.418264 1.1214,-1.313304 -0.0661,-4.839642 -0.50932,-1.512392 -0.92604,-2.85266 -0.92604,-2.978374 0,-0.125712 0.44649,-0.191617 0.99219,-0.146453 l 0.99219,0.08212 0.41009,1.978602 c 0.41451,1.999898 0.55792,2.107308 0.8909,0.667231 0.64175,-2.775466 0.6433,-2.778125 1.61962,-2.778125 0.50371,0 0.91584,0.09644 0.91584,0.214313 0,0.768101 -2.7264,8.507841 -3.12359,8.867296 -0.26947,0.243863 -0.86753,0.443391 -1.32901,0.443391 -0.72139,0 -0.83906,-0.09393 -0.83906,-0.669761 z M 84.306388,58.040393 v -4.7625 h 2.79488 2.79489 l -0.0829,0.859896 -0.0829,0.859896 -1.78593,0.07823 -1.78594,0.07824 v 0.913953 0.913953 h 1.5875 1.5875 v 0.926041 0.926042 h -1.5875 -1.5875 v 1.058333 1.058334 h 1.85208 1.85208 v 0.926041 0.926042 h -2.77812 -2.77812 z m 6.34999,1.322917 v -3.439584 h 0.92604 0.92604 v 1.322917 c 0,1.953101 0.98824,1.780257 1.51275,-0.264583 0.20462,-0.797727 0.35981,-0.937922 1.11998,-1.01177 l 0.882445,-0.08573 -0.16277,1.003025 c -0.0895,0.551664 -0.399615,1.323393 -0.689115,1.714955 -0.38181,0.516435 -0.43606,0.746577 -0.19756,0.838102 0.27218,0.104444 1.238435,2.591086 1.238435,3.187068 0,0.09635 -0.4098,0.175183 -0.910655,0.175183 -0.86035,0 -0.93022,-0.06944 -1.26457,-1.256771 -0.27074,-0.961398 -0.49199,-1.276641 -0.94143,-1.341318 -0.54081,-0.07783 -0.58751,0.02207 -0.58751,1.25677 v 1.341319 h -0.92604 -0.92604 z m 6.614585,2.910416 c -0.68895,-0.688948 -0.69173,-2.10698 -0.006,-2.843479 0.3051,-0.327488 1.02275,-0.636863 1.71979,-0.741389 1.281097,-0.192112 1.439537,-0.381725 0.77784,-0.930879 -0.34169,-0.283583 -0.51809,-0.284919 -0.96266,-0.0073 -0.43979,0.274659 -0.66426,0.27572 -1.16914,0.0055 -0.6701,-0.358629 -0.72495,-0.479793 -0.42235,-0.932981 0.72059,-1.079183 3.197687,-1.227551 4.175157,-0.250071 0.60741,0.607406 0.64944,0.829976 0.64944,3.439583 l 1e-5,2.790129 H 101.107 c -0.50932,0 -0.92604,-0.123251 -0.92604,-0.273892 0,-0.188801 -0.15899,-0.188801 -0.511767,0 -0.80414,0.430361 -1.82125,0.322117 -2.39864,-0.255275 z m 2.4919,-1.218933 c 0.519907,-0.199509 0.555757,-1.162317 0.0433,-1.162317 -1.02966,0 -1.66758,0.830517 -0.88154,1.147689 0.1819,0.0734 0.35076,0.142851 0.37524,0.154339 0.0245,0.01148 0.23283,-0.05138 0.46302,-0.139711 z M 104.4147,60.15706 v -2.645834 h -0.79374 c -0.70556,0 -0.79376,-0.08819 -0.79376,-0.79375 v -0.79375 h 2.51355 2.51354 v 0.79375 c 0,0.705557 -0.0882,0.79375 -0.79375,0.79375 h -0.79375 v 2.645834 2.645833 h -0.92604 -0.92605 z m 5.26874,2.30669 c -0.86624,-0.665078 -1.17315,-1.840598 -1.07386,-4.11298 0.0551,-1.261268 1.27948,-2.427044 2.54904,-2.427044 0.53008,0 1.20417,0.128646 1.49796,0.28588 0.64428,0.344805 1.28313,1.779029 1.28313,2.880622 v 0.802248 h -1.7198 c -1.511,0 -1.71979,0.06081 -1.71979,0.500859 0,0.592847 0.55734,0.869394 1.08233,0.537046 0.54005,-0.341881 1.09277,-0.283893 1.6958,0.177922 0.52191,0.39969 0.51898,0.414094 -0.21319,1.049919 -0.82482,0.716278 -2.63376,0.879713 -3.38162,0.305528 z m 2.1396,-4.309467 c 0,-0.275786 -0.193,-0.386876 -0.57459,-0.330729 -0.84706,0.12464 -0.93778,0.746006 -0.10892,0.746006 0.44463,0 0.68351,-0.145132 0.68351,-0.415277 z m 9.26041,1.209027 v -3.439584 h 0.91396 0.91395 l 0.0782,1.785938 0.0782,1.785937 1.02305,-1.800399 c 0.95483,-1.680358 1.07832,-1.795026 1.85208,-1.719792 l 0.82904,0.08061 0.074,3.373437 0.074,3.373438 h -0.93395 -0.93395 v -1.455208 c 0,-0.800365 -0.11032,-1.455209 -0.24516,-1.455209 -0.13484,0 -0.61983,0.654844 -1.07775,1.455209 -0.75454,1.318786 -0.91758,1.455208 -1.73921,1.455208 h -0.90663 z m 6.87917,0 v -3.439584 h 0.92604 0.92604 v 1.322917 c 0,1.293519 0.0176,1.322917 0.79375,1.322917 0.77612,0 0.79375,-0.0294 0.79375,-1.322917 v -1.322917 h 0.92605 0.92604 v 3.439584 3.439583 h -0.92604 -0.92605 v -1.322917 c 0,-1.293519 -0.0176,-1.322916 -0.79375,-1.322916 -0.77611,0 -0.79375,0.0294 -0.79375,1.322916 v 1.322917 h -0.92604 -0.92604 z m 6.99943,2.79015 c -0.60359,-0.603594 -0.64943,-0.837618 -0.64943,-3.315787 0,-3.873672 0.38978,-4.57386 3.15043,-5.659414 0.942,-0.370417 1.20812,-0.392184 1.38501,-0.113295 0.47696,0.751999 0.21246,1.20495 -0.96658,1.655228 -0.99577,0.380286 -1.71678,1.029965 -1.71678,1.546934 0,0.06248 0.47426,0.113607 1.0539,0.113607 0.57964,0 1.23394,0.149424 1.45399,0.33205 1.14851,0.953174 1.14635,4.312015 -0.004,5.461873 -0.89625,0.896257 -2.80045,0.885372 -3.70702,-0.02119 z m 2.65975,-1.737762 c 0.40343,-1.271093 -0.61925,-3.024251 -1.21516,-2.083131 -0.27434,0.433253 -0.32138,2.186017 -0.0656,2.441853 0.36624,0.366241 1.11739,0.155845 1.28071,-0.358722 z m 15.21165,-1.052388 v -3.439584 h 2.38125 2.38125 v 0.779923 c 0,0.754317 -0.0456,0.78255 -1.38906,0.859896 l -1.38906,0.07997 -0.0757,2.579687 -0.0757,2.579688 h -0.91646 -0.91647 z m 5.82084,2.910416 c -0.73052,-0.730522 -0.69655,-2.131758 0.0691,-2.851068 0.32905,-0.309131 1.10296,-0.64276 1.71979,-0.741394 1.21064,-0.193588 1.3546,-0.382627 0.70315,-0.923285 -0.3417,-0.283583 -0.5181,-0.284919 -0.96266,-0.0073 -0.4398,0.274659 -0.66427,0.27572 -1.16915,0.0055 -0.6701,-0.358629 -0.72495,-0.479793 -0.42235,-0.932981 0.72059,-1.079183 3.19769,-1.227551 4.17517,-0.250071 0.6074,0.607406 0.64943,0.829976 0.64943,3.439583 v 2.790129 h -0.92604 c -0.50933,0 -0.92605,-0.123251 -0.92605,-0.273892 0,-0.188801 -0.15899,-0.188801 -0.51177,0 -0.80414,0.430361 -1.82125,0.322117 -2.39864,-0.255275 z m 2.4919,-1.218933 c 0.51991,-0.199509 0.55576,-1.162317 0.0433,-1.162317 -1.02965,0 -1.66757,0.830517 -0.88154,1.147689 0.18191,0.0734 0.35076,0.142851 0.37524,0.154339 0.0245,0.01148 0.23284,-0.05138 0.46302,-0.139711 z M 109.61818,53.63067 c -0.097,-0.09701 -0.17639,-2.299668 -0.17639,-4.894791 v -4.718402 h 0.92604 c 0.50932,0 0.92604,0.116509 0.92604,0.258911 0,0.159599 0.24624,0.146719 0.64195,-0.03358 1.80911,-0.824285 2.94908,0.768401 2.73106,3.815623 -0.16725,2.337453 -0.66056,2.944362 -2.24785,2.765451 l -1.12516,-0.126823 v 1.555001 c 0,1.531062 -0.0115,1.554999 -0.74965,1.554999 -0.41231,0 -0.82903,-0.07937 -0.92604,-0.176389 z m 3.14803,-5.510413 c 0.24248,-1.292532 -0.0434,-2.250697 -0.67164,-2.250697 -0.5879,0 -0.97265,1.395558 -0.69249,2.511803 0.26293,1.047581 1.15049,0.877695 1.36413,-0.261106 z m -28.664372,-1.919968 0.0722,-4.696354 0.99219,-0.08212 0.99219,-0.08212 0.0154,2.727949 0.0154,2.727952 1.36769,-2.711979 c 1.31549,-2.608461 1.40074,-2.711979 2.23352,-2.711979 h 0.86583 v 4.762499 4.7625 h -0.91646 -0.91646 l -0.0757,-2.579687 -0.0757,-2.579687 -1.32291,2.578478 c -1.31933,2.571488 -1.32563,2.578481 -2.32121,2.579687 l -0.9983,0.0013 0.0722,-4.696354 z m 8.86964,4.410575 c -1.65828,-0.965859 -1.63969,-5.415867 0.0264,-6.307507 0.986,-0.527693 2.38638,-0.344604 3.141735,0.410757 0.67804,0.678045 0.68302,0.706604 0.18641,1.070137 -0.34024,0.249062 -0.83551,0.318635 -1.486565,0.208825 -0.94847,-0.159973 -0.98128,-0.138314 -1.14961,0.758944 -0.28865,1.538673 0.37634,2.866247 1.12465,2.245206 0.24168,-0.200573 0.56791,-0.186978 1.133345,0.04724 0.97365,0.403297 0.98844,0.602485 0.0969,1.303811 -0.750075,0.590016 -2.285735,0.721233 -3.073165,0.262591 z m 6.151565,-2.360054 v -2.645833 h -0.92604 c -0.85255,0 -0.92604,-0.063 -0.92604,-0.79375 v -0.79375 h 2.64583 2.645827 v 0.79375 c 0,0.705556 -0.0882,0.79375 -0.79375,0.79375 h -0.79375 v 2.645833 2.645833 h -0.92604 -0.926037 z m 4.896177,2.050521 c -1.30311,-1.124966 -1.16766,-4.921194 0.21002,-5.886159 0.5779,-0.404775 2.1758,-0.531093 2.95174,-0.233341 1.6065,0.616476 1.6065,5.933982 0,6.550458 -0.95812,0.367663 -2.4764,0.160716 -3.16176,-0.430958 z m 2.45835,-2.953062 c -0.0673,-1.155261 -0.16087,-1.358141 -0.65873,-1.428991 -0.47664,-0.06783 -0.61104,0.08161 -0.75274,0.836893 -0.29049,1.548458 0.37893,2.86059 1.13802,2.230609 0.23035,-0.191172 0.32483,-0.757295 0.27345,-1.638511 z m 9.31422,0.108791 v -3.439583 h 0.91341 0.91342 l 0.0788,1.652542 0.0788,1.652545 0.93712,-1.586399 c 0.79936,-1.353219 1.06187,-1.598583 1.78593,-1.669306 l 0.84883,-0.08291 v 3.456347 3.456347 h -0.92604 -0.92605 l -0.003,-1.653645 -0.003,-1.653646 -1.04909,1.653646 c -0.90906,1.432909 -1.15595,1.653645 -1.84957,1.653645 h -0.80021 z m 6.61458,0 v -3.439583 h 0.91395 0.91396 l 0.0782,1.785937 0.0782,1.785938 1.04854,-1.785938 c 0.95697,-1.629976 1.12449,-1.785937 1.91823,-1.785937 h 0.86968 v 3.439583 3.439583 h -0.91341 -0.91342 l -0.0788,-1.653645 -0.0788,-1.653646 -1.01134,1.653646 c -0.92358,1.510133 -1.09005,1.653645 -1.91823,1.653645 h -0.90689 z M 93.719008,41.70024 c -0.34329,-0.343286 -0.14429,-1.651513 0.25121,-1.651513 0.22188,0 0.51304,-0.288306 0.64701,-0.640678 0.18654,-0.490635 2.7e-4,-1.404593 -0.79523,-3.902604 -0.57135,-1.79406 -1.0411,-3.291692 -1.04389,-3.328072 -0.003,-0.03638 0.45771,-0.06615 1.02331,-0.06615 h 1.02838 l 0.31546,1.671879 c 0.466395,2.471832 0.652975,2.521928 1.173255,0.315018 l 0.46841,-1.986897 h 0.90347 c 0.56847,0 0.90348,0.128524 0.90348,0.346605 0,0.645628 -2.65347,8.62272 -2.9238,8.789796 -0.492255,0.304229 -1.796815,0.606864 -1.951065,0.452612 z m -9.67721,-7.472346 v -4.7625 h 1.01368 1.01367 l 1.01588,2.566694 c 0.7989,2.018474 1.06009,2.456444 1.22289,2.050521 1.95426,-4.872739 1.80097,-4.617215 2.77003,-4.617215 h 0.90135 v 4.7625 4.7625 h -0.92604 -0.92604 l -0.0217,-2.182813 -0.0217,-2.182812 -0.63463,1.389062 c -0.54715,1.197613 -0.73752,1.389063 -1.38125,1.389063 -0.65889,0 -0.80721,-0.163259 -1.26193,-1.389063 l -0.51531,-1.389062 -0.0769,2.182812 -0.0769,2.182813 h -1.04763 -1.04764 z m 16.007282,4.446336 c -0.527347,-0.299037 -0.914287,-0.732353 -0.921987,-1.032468 -0.0106,-0.413035 1.205457,-0.665003 1.915677,-0.39693 0.59474,0.224491 0.79906,0.203533 0.98745,-0.101293 0.29959,-0.484738 -0.14827,-1.063562 -0.82291,-1.063562 -0.3535,0 -0.49677,-0.190767 -0.49677,-0.661458 0,-0.529167 0.13229,-0.661458 0.66146,-0.661458 0.39953,0 0.66146,-0.150972 0.66146,-0.38126 0,-0.561734 -0.44609,-0.740156 -1.04678,-0.418679 -0.38831,0.207822 -0.67215,0.193519 -1.069857,-0.05391 -1.11717,-0.695031 0.0296,-1.780553 1.888887,-1.788086 1.64192,-0.0066 2.65854,1.337906 1.99755,2.641934 -0.27256,0.537731 -0.26964,0.79398 0.0156,1.369941 0.43394,0.876122 0.19433,1.950204 -0.55163,2.47269 -0.65679,0.460033 -2.46454,0.501904 -3.21818,0.07454 z m 5.78425,-0.309647 c -0.62423,-0.536943 -0.74305,-0.869217 -0.83669,-2.33988 -0.17015,-2.67218 0.68409,-3.913476 2.69321,-3.913476 1.44538,0 2.31953,0.91439 2.48104,2.595256 l 0.13197,1.373494 h -1.75345 c -1.31297,0 -1.75346,0.09156 -1.75346,0.36448 0,0.678709 0.67018,1.003395 1.39213,0.674454 0.49024,-0.223366 0.8008,-0.222988 1.22024,0.0016 0.78585,0.420576 0.70105,0.991081 -0.21798,1.466326 -1.16104,0.600398 -2.50407,0.511524 -3.35701,-0.222142 z m 2.37585,-4.018386 c -0.18196,-0.474199 -1.18548,-0.414562 -1.3484,0.08013 -0.0712,0.216131 0.17088,0.33073 0.69857,0.33073 0.62129,0 0.77114,-0.09474 0.64983,-0.410864 z m 3.08469,1.204614 v -3.439584 h 0.92604 0.92605 l 0.005,1.785938 0.005,1.785937 0.99934,-1.719791 c 0.86451,-1.487744 1.11371,-1.730979 1.84691,-1.802702 l 0.84754,-0.08291 v 3.456348 3.456347 h -0.91341 -0.91342 l -0.0788,-1.614982 -0.0788,-1.614983 -0.92604,1.612117 c -0.83323,1.450525 -1.01224,1.612403 -1.78594,1.614982 l -0.8599,0.0029 z m 1.94654,-4.230878 c -0.6232,-0.251746 -1.41737,-1.249723 -1.41737,-1.78112 0,-0.548629 1.27365,-0.395261 1.5875,0.191165 0.15576,0.291041 0.45341,0.529166 0.66146,0.529166 0.20804,0 0.50569,-0.238125 0.66145,-0.529166 0.26769,-0.500174 1.58873,-0.775563 1.58652,-0.33073 -0.002,0.468252 -1.08228,1.918229 -1.42869,1.918229 -0.20852,0 -0.5377,0.05209 -0.7315,0.115748 -0.1938,0.06366 -0.60752,0.01267 -0.91937,-0.113292 z"
           id="path21"
           sodipodi:nodetypes="sscssssccsssssssssscssssscsssscsssccsssscsssssscccccccccccccccccccccccccccccccsssccsssssssccccccssssssscssscccsssccccsscccssccccccssssscssssssssssccccccsscccccssssccccccssscccccccssscccccsssssssccccscccccccsscccccccsssssssscssscccsssccsscssssscsssssssccccccsscccccccscccccssssssscccccsscccssccccccssssscssscccccccsscccccccssccccccccsscccccccssccsssccscsscsssssccccssscccccccssscccccccssssssssscscscccssscssscsccscsssccccccsscccccccsccccsssscssc"
           transform="matrix(1.0655576,0,0,1.0655576,23.618341,35.307121)" />
        <rect
           style="fill:#eca270;fill-opacity:1;stroke-width:0.31461"
           id="rect892-5"
           width="7.108386"
           height="36.536831"
           x="64.329117"
           y="65.327751" />
        <rect
           style="fill:#eca270;fill-opacity:1;stroke-width:0.316608"
           id="rect892-3"
           width="6.8559675"
           height="38.364582"
           x="84.425285"
           y="63.5" />
        <rect
           style="fill:#eca270;fill-opacity:1;stroke-width:0.293963"
           id="rect892"
           width="6.8559704"
           height="33.072922"
           x="52.675278"
           y="68.791664"
           inkscape:export-filename="H:\1\media\landing page\rect892.png"
           inkscape:export-xdpi="96"
           inkscape:export-ydpi="96" />
        <rect
           style="fill:#eca270;fill-opacity:1;stroke-width:0.289288"
           id="rect892-8"
           width="6.6145887"
           height="33.198315"
           x="96.572914"
           y="68.791664" />
        <path
           id="rect628"
           style="fill:#ffb37f;fill-opacity:1;fill-rule:evenodd;stroke-width:0.264583"
           d="m 77.873485,55.572998 -31.477867,15.949769 2.309935,3.600813 29.34653,-12.946497 28.790487,12.701035 2.15233,-3.355351 z"
           sodipodi:nodetypes="ccccccc" />
      </g>
    </g>
  </g>
</svg>
